<?xml version="1.0" standalone="no"?>
<!DOCTYPE svg PUBLIC "-//W3C//DTD SVG 20010904//EN"
 "http://www.w3.org/TR/2001/REC-SVG-20010904/DTD/svg10.dtd">
<svg version="1.0" xmlns="http://www.w3.org/2000/svg"
 width="487.000000pt" height="207.000000pt" viewBox="0 0 487.000000 207.000000"
 preserveAspectRatio="xMidYMid meet">

<g transform="translate(0.000000,207.000000) scale(0.100000,-0.100000)"
fill="#000000" stroke="none">
<path d="M379 1493 c-59 -36 -59 -37 -59 -448 0 -331 2 -380 16 -405 33 -55
55 -60 254 -60 l181 0 -28 -53 c-23 -43 -33 -52 -58 -55 -16 -1 -39 -5 -51 -7
-22 -5 -44 -43 -44 -75 0 -19 10 -20 355 -20 l355 0 0 24 c0 41 -35 75 -83 78
-39 3 -44 6 -70 56 l-28 52 181 0 c199 0 221 5 254 60 14 25 16 74 16 405 0
413 0 413 -60 449 -25 14 -86 16 -567 16 -480 -1 -541 -2 -564 -17z m1105 -27
c53 -22 56 -42 56 -407 l0 -329 -595 0 -595 0 0 329 c0 361 3 385 54 407 46
20 1032 20 1080 0z m44 -797 c-20 -59 -25 -59 -583 -59 -558 0 -563 0 -583 59
l-11 31 594 0 594 0 -11 -31z m-420 -134 c12 -25 22 -48 22 -50 0 -3 -83 -5
-185 -5 -102 0 -185 2 -185 5 0 2 10 25 22 50 l22 45 141 0 141 0 22 -45z
m150 -107 c7 -7 12 -16 12 -20 0 -4 -146 -8 -325 -8 -179 0 -325 4 -325 8 0
29 30 32 325 32 221 0 304 -3 313 -12z"/>
<path d="M1180 1433 c-57 -8 -69 -13 -63 -28 3 -10 12 -13 25 -9 11 3 19 2 17
-3 -7 -18 -154 -212 -161 -213 -4 0 -52 31 -107 69 l-101 70 -53 -57 c-137
-146 -150 -163 -140 -173 10 -10 73 50 162 153 l33 37 108 -74 108 -75 87 121
c80 111 89 120 99 101 19 -35 35 -13 26 36 -9 50 -8 49 -40 45z"/>
<path d="M431 1396 c-14 -17 -7 -36 14 -36 22 0 29 20 13 36 -13 13 -16 13
-27 0z"/>
<path d="M490 1379 c0 -25 33 -22 38 4 2 12 -3 17 -17 17 -15 0 -21 -6 -21
-21z"/>
<path d="M555 1390 c-4 -7 -3 -16 3 -22 14 -14 45 -2 40 15 -6 16 -34 21 -43
7z"/>
<path d="M400 1295 c0 -12 17 -15 95 -15 78 0 95 3 95 15 0 12 -17 15 -95 15
-78 0 -95 -3 -95 -15z"/>
<path d="M1138 1048 l-3 -213 -32 -3 -33 -3 0 140 0 141 -65 0 -65 0 0 -140 0
-140 -35 0 -35 0 0 180 0 180 -65 0 -65 0 0 -180 0 -180 -30 0 -30 0 0 90 0
90 -65 0 -64 0 -3 -87 -3 -88 -33 -3 c-20 -2 -32 -9 -32 -18 0 -12 62 -14 425
-14 363 0 425 2 425 14 0 9 -12 16 -32 18 l-33 3 -3 213 -2 212 -60 0 -60 0
-2 -212z m92 -18 l0 -200 -30 0 -30 0 0 200 0 200 30 0 30 0 0 -200z m-390
-36 l0 -165 -32 3 -33 3 -3 163 -2 162 35 0 35 0 0 -166z m200 -39 l0 -125
-35 0 -35 0 0 125 0 125 35 0 35 0 0 -125z m-395 -50 l0 -70 -32 -3 -33 -3 0
76 0 76 33 -3 32 -3 0 -70z"/>
<path d="M400 1230 c0 -19 7 -20 95 -20 88 0 95 1 95 20 0 19 -7 20 -95 20
-88 0 -95 -1 -95 -20z"/>
<path d="M1820 1001 c0 -173 2 -201 15 -201 13 0 15 26 13 197 -2 146 -6 197
-15 201 -10 3 -13 -41 -13 -197z"/>
<path d="M2034 1193 c-13 -9 -147 -383 -140 -390 11 -11 26 11 42 62 l18 55
116 0 116 0 18 -55 c16 -51 31 -73 42 -62 2 2 -26 91 -64 198 l-69 194 -34 3
c-19 1 -39 -1 -45 -5z m103 -135 l39 -113 -53 -3 c-29 -2 -77 -2 -106 0 l-53
3 39 113 c37 106 41 112 67 112 26 0 30 -6 67 -112z"/>
<path d="M2890 1180 c0 -6 28 -10 65 -10 l65 0 0 -185 c0 -117 4 -185 10 -185
6 0 10 68 10 185 l0 185 59 0 c33 0 63 5 66 10 4 6 -43 10 -134 10 -87 0 -141
-4 -141 -10z"/>
<path d="M3830 1125 l0 -65 -73 0 c-100 0 -107 -8 -107 -126 0 -123 5 -128
114 -133 l86 -3 0 196 c0 124 -4 196 -10 196 -6 0 -10 -28 -10 -65z m0 -195
l0 -110 -58 0 c-90 0 -102 13 -102 114 0 50 5 87 12 94 7 7 40 12 80 12 l68 0
0 -110z"/>
<path d="M2292 988 c2 -134 6 -182 16 -186 9 -3 12 38 12 182 0 160 -2 186
-15 186 -13 0 -15 -24 -13 -182z"/>
<path d="M2662 1047 c-19 -20 -22 -35 -22 -115 0 -119 11 -132 105 -132 94 0
105 13 105 130 0 83 -2 93 -25 115 -20 21 -34 25 -83 25 -48 0 -62 -4 -80 -23z
m148 -17 c16 -16 20 -33 20 -93 0 -99 -13 -117 -85 -117 -76 0 -85 12 -85 115
0 75 2 85 22 99 33 23 103 21 128 -4z"/>
<path d="M2396 1038 c-12 -16 -16 -47 -16 -109 0 -83 1 -89 26 -108 21 -16 41
-21 90 -21 61 0 64 -1 64 -24 0 -14 -4 -36 -10 -50 -9 -25 -13 -26 -85 -26
-43 0 -75 -4 -75 -10 0 -6 33 -10 79 -10 112 0 111 -1 111 212 l0 168 -84 0
c-76 0 -86 -2 -100 -22z m162 -105 l-3 -108 -53 -3 c-37 -2 -62 2 -78 13 -22
14 -24 22 -24 91 0 107 5 114 91 114 l70 0 -3 -107z"/>
<path d="M3210 929 c0 -79 4 -129 10 -129 6 0 10 41 10 104 0 57 3 111 6 120
4 11 19 16 49 16 24 0 47 5 50 10 4 7 -16 10 -59 9 l-66 -2 0 -128z"/>
<path d="M3400 1050 c0 -6 30 -10 70 -10 67 0 71 -1 81 -27 17 -45 6 -53 -69
-53 -83 0 -102 -15 -102 -78 0 -67 23 -82 120 -82 l80 0 0 108 c0 144 -5 152
-106 152 -43 0 -74 -4 -74 -10z m158 -167 l-3 -58 -68 0 c-75 0 -87 8 -87 61
0 45 16 54 92 54 l69 0 -3 -57z"/>
<path d="M3930 1041 c-5 -11 -10 -62 -10 -115 0 -87 2 -96 22 -110 25 -18 178
-23 178 -7 0 5 -36 11 -80 13 -90 4 -100 10 -100 71 l0 37 96 0 97 0 -5 50
c-7 73 -17 80 -109 80 -67 0 -80 -3 -89 -19z m168 -54 l3 -48 -78 3 -78 3 -3
33 c-5 52 11 63 87 60 l66 -3 3 -48z"/>
<path d="M4190 930 c0 -80 4 -130 10 -130 6 0 10 43 10 108 0 71 4 112 12 120
7 7 31 12 55 12 24 0 43 5 43 10 0 6 -28 10 -65 10 l-65 0 0 -130z"/>
</g>
</svg>
