<?xml version="1.0" encoding="UTF-8" standalone="no"?>
<svg
   version="1.0"
   width="400pt"
   height="114pt"
   viewBox="0 0 400 114"
   preserveAspectRatio="xMidYMid meet"
   id="svg42"
   sodipodi:docname="315949ff623122869508aabcd20d62f0.svg"
   xmlns:inkscape="http://www.inkscape.org/namespaces/inkscape"
   xmlns:sodipodi="http://sodipodi.sourceforge.net/DTD/sodipodi-0.dtd"
   xmlns="http://www.w3.org/2000/svg"
   xmlns:svg="http://www.w3.org/2000/svg">
  <defs
     id="defs46" />
  <sodipodi:namedview
     id="namedview44"
     pagecolor="#ffffff"
     bordercolor="#666666"
     borderopacity="1.0"
     inkscape:pageshadow="2"
     inkscape:pageopacity="0.0"
     inkscape:pagecheckerboard="0"
     inkscape:document-units="pt" />
  <g
     transform="matrix(0.1,0,0,-0.1,-32,151)"
     fill="#000000"
     stroke="none"
     id="g40">
    <path
       d="m 379,1493 c -59,-36 -59,-37 -59,-448 0,-331 2,-380 16,-405 33,-55 55,-60 254,-60 h 181 l -28,-53 c -23,-43 -33,-52 -58,-55 -16,-1 -39,-5 -51,-7 -22,-5 -44,-43 -44,-75 0,-19 10,-20 355,-20 h 355 v 24 c 0,41 -35,75 -83,78 -39,3 -44,6 -70,56 l -28,52 h 181 c 199,0 221,5 254,60 14,25 16,74 16,405 0,413 0,413 -60,449 -25,14 -86,16 -567,16 -480,-1 -541,-2 -564,-17 z m 1105,-27 c 53,-22 56,-42 56,-407 V 730 H 945 350 v 329 c 0,361 3,385 54,407 46,20 1032,20 1080,0 z m 44,-797 c -20,-59 -25,-59 -583,-59 -558,0 -563,0 -583,59 l -11,31 h 594 594 z M 1108,535 c 12,-25 22,-48 22,-50 0,-3 -83,-5 -185,-5 -102,0 -185,2 -185,5 0,2 10,25 22,50 l 22,45 h 141 141 z m 150,-107 c 7,-7 12,-16 12,-20 0,-4 -146,-8 -325,-8 -179,0 -325,4 -325,8 0,29 30,32 325,32 221,0 304,-3 313,-12 z"
       id="path2" />
    <path
       d="m 1180,1433 c -57,-8 -69,-13 -63,-28 3,-10 12,-13 25,-9 11,3 19,2 17,-3 -7,-18 -154,-212 -161,-213 -4,0 -52,31 -107,69 l -101,70 -53,-57 C 600,1116 587,1099 597,1089 c 10,-10 73,50 162,153 l 33,37 108,-74 108,-75 87,121 c 80,111 89,120 99,101 19,-35 35,-13 26,36 -9,50 -8,49 -40,45 z"
       id="path4" />
    <path
       d="m 431,1396 c -14,-17 -7,-36 14,-36 22,0 29,20 13,36 -13,13 -16,13 -27,0 z"
       id="path6" />
    <path
       d="m 490,1379 c 0,-25 33,-22 38,4 2,12 -3,17 -17,17 -15,0 -21,-6 -21,-21 z"
       id="path8" />
    <path
       d="m 555,1390 c -4,-7 -3,-16 3,-22 14,-14 45,-2 40,15 -6,16 -34,21 -43,7 z"
       id="path10" />
    <path
       d="m 400,1295 c 0,-12 17,-15 95,-15 78,0 95,3 95,15 0,12 -17,15 -95,15 -78,0 -95,-3 -95,-15 z"
       id="path12" />
    <path
       d="m 1138,1048 -3,-213 -32,-3 -33,-3 v 140 141 h -65 -65 V 970 830 h -35 -35 v 180 180 H 805 740 V 1010 830 h -30 -30 v 90 90 h -65 -64 l -3,-87 -3,-88 -33,-3 c -20,-2 -32,-9 -32,-18 0,-12 62,-14 425,-14 363,0 425,2 425,14 0,9 -12,16 -32,18 l -33,3 -3,213 -2,212 h -60 -60 z m 92,-18 V 830 h -30 -30 v 200 200 h 30 30 z M 840,994 V 829 l -32,3 -33,3 -3,163 -2,162 h 35 35 z m 200,-39 V 830 h -35 -35 v 125 125 h 35 35 z M 645,905 v -70 l -32,-3 -33,-3 v 76 76 l 33,-3 32,-3 z"
       id="path14" />
    <path
       d="m 400,1230 c 0,-19 7,-20 95,-20 88,0 95,1 95,20 0,19 -7,20 -95,20 -88,0 -95,-1 -95,-20 z"
       id="path16" />
    <path
       d="m 1820,1001 c 0,-173 2,-201 15,-201 13,0 15,26 13,197 -2,146 -6,197 -15,201 -10,3 -13,-41 -13,-197 z"
       id="path18" />
    <path
       d="m 2034,1193 c -13,-9 -147,-383 -140,-390 11,-11 26,11 42,62 l 18,55 h 116 116 l 18,-55 c 16,-51 31,-73 42,-62 2,2 -26,91 -64,198 l -69,194 -34,3 c -19,1 -39,-1 -45,-5 z m 103,-135 39,-113 -53,-3 c -29,-2 -77,-2 -106,0 l -53,3 39,113 c 37,106 41,112 67,112 26,0 30,-6 67,-112 z"
       id="path20" />
    <path
       d="m 2890,1180 c 0,-6 28,-10 65,-10 h 65 V 985 c 0,-117 4,-185 10,-185 6,0 10,68 10,185 v 185 h 59 c 33,0 63,5 66,10 4,6 -43,10 -134,10 -87,0 -141,-4 -141,-10 z"
       id="path22" />
    <path
       d="m 3830,1125 v -65 h -73 c -100,0 -107,-8 -107,-126 0,-123 5,-128 114,-133 l 86,-3 v 196 c 0,124 -4,196 -10,196 -6,0 -10,-28 -10,-65 z m 0,-195 V 820 h -58 c -90,0 -102,13 -102,114 0,50 5,87 12,94 7,7 40,12 80,12 h 68 z"
       id="path24" />
    <path
       d="m 2292,988 c 2,-134 6,-182 16,-186 9,-3 12,38 12,182 0,160 -2,186 -15,186 -13,0 -15,-24 -13,-182 z"
       id="path26" />
    <path
       d="m 2662,1047 c -19,-20 -22,-35 -22,-115 0,-119 11,-132 105,-132 94,0 105,13 105,130 0,83 -2,93 -25,115 -20,21 -34,25 -83,25 -48,0 -62,-4 -80,-23 z m 148,-17 c 16,-16 20,-33 20,-93 0,-99 -13,-117 -85,-117 -76,0 -85,12 -85,115 0,75 2,85 22,99 33,23 103,21 128,-4 z"
       id="path28" />
    <path
       d="m 2396,1038 c -12,-16 -16,-47 -16,-109 0,-83 1,-89 26,-108 21,-16 41,-21 90,-21 61,0 64,-1 64,-24 0,-14 -4,-36 -10,-50 -9,-25 -13,-26 -85,-26 -43,0 -75,-4 -75,-10 0,-6 33,-10 79,-10 112,0 111,-1 111,212 v 168 h -84 c -76,0 -86,-2 -100,-22 z m 162,-105 -3,-108 -53,-3 c -37,-2 -62,2 -78,13 -22,14 -24,22 -24,91 0,107 5,114 91,114 h 70 z"
       id="path30" />
    <path
       d="m 3210,929 c 0,-79 4,-129 10,-129 6,0 10,41 10,104 0,57 3,111 6,120 4,11 19,16 49,16 24,0 47,5 50,10 4,7 -16,10 -59,9 l -66,-2 z"
       id="path32" />
    <path
       d="m 3400,1050 c 0,-6 30,-10 70,-10 67,0 71,-1 81,-27 17,-45 6,-53 -69,-53 -83,0 -102,-15 -102,-78 0,-67 23,-82 120,-82 h 80 v 108 c 0,144 -5,152 -106,152 -43,0 -74,-4 -74,-10 z m 158,-167 -3,-58 h -68 c -75,0 -87,8 -87,61 0,45 16,54 92,54 h 69 z"
       id="path34" />
    <path
       d="m 3930,1041 c -5,-11 -10,-62 -10,-115 0,-87 2,-96 22,-110 25,-18 178,-23 178,-7 0,5 -36,11 -80,13 -90,4 -100,10 -100,71 v 37 h 96 97 l -5,50 c -7,73 -17,80 -109,80 -67,0 -80,-3 -89,-19 z m 168,-54 3,-48 -78,3 -78,3 -3,33 c -5,52 11,63 87,60 l 66,-3 z"
       id="path36" />
    <path
       d="m 4190,930 c 0,-80 4,-130 10,-130 6,0 10,43 10,108 0,71 4,112 12,120 7,7 31,12 55,12 24,0 43,5 43,10 0,6 -28,10 -65,10 h -65 z"
       id="path38" />
  </g>
</svg>
